<mxfile host="app.diagrams.net" modified="2024-03-30T19:40:02.245Z" agent="Mozilla/5.0 (Windows NT 10.0; Win64; x64) AppleWebKit/537.36 (KHTML, like Gecko) Chrome/123.0.0.0 Safari/537.36" etag="i4ctoseaJZM3-DVvlaBl" version="24.2.1" type="google">
  <diagram name="Page-1" id="e7e014a7-5840-1c2e-5031-d8a46d1fe8dd">
    <mxGraphModel grid="1" page="1" gridSize="10" guides="1" tooltips="1" connect="1" arrows="1" fold="1" pageScale="1" pageWidth="1169" pageHeight="826" background="none" math="0" shadow="0">
      <root>
        <mxCell id="0" />
        <mxCell id="1" parent="0" />
        <mxCell id="2" value="Usuario" style="swimlane;whiteSpace=wrap" vertex="1" parent="1">
          <mxGeometry x="164.5" y="128" width="280" height="570" as="geometry" />
        </mxCell>
        <mxCell id="5" value="" style="ellipse;shape=startState;fillColor=#000000;strokeColor=#ff0000;" vertex="1" parent="2">
          <mxGeometry x="100" y="40" width="30" height="30" as="geometry" />
        </mxCell>
        <mxCell id="6" value="" style="edgeStyle=elbowEdgeStyle;elbow=horizontal;verticalAlign=bottom;endArrow=open;endSize=8;strokeColor=#FF0000;endFill=1;rounded=0" edge="1" parent="2" source="5" target="7">
          <mxGeometry x="100" y="40" as="geometry">
            <mxPoint x="115" y="110" as="targetPoint" />
          </mxGeometry>
        </mxCell>
        <mxCell id="7" value="Solicitar iniciar sesion" style="" vertex="1" parent="2">
          <mxGeometry x="40" y="110" width="150" height="50" as="geometry" />
        </mxCell>
        <mxCell id="8" value="Solicitar ubicación actual del usuario" style="" vertex="1" parent="2">
          <mxGeometry x="15" y="220" width="200" height="50" as="geometry" />
        </mxCell>
        <mxCell id="9" value="" style="endArrow=open;strokeColor=#FF0000;endFill=1;rounded=0" edge="1" parent="2" source="7" target="8">
          <mxGeometry relative="1" as="geometry" />
        </mxCell>
        <mxCell id="0BsC6vm-CWQRjR1OpwmE-50" value="" style="ellipse;html=1;shape=endState;fillColor=#000000;strokeColor=#ff0000;" vertex="1" parent="2">
          <mxGeometry x="100" y="285" width="30" height="30" as="geometry" />
        </mxCell>
        <mxCell id="3" value="Sistema" style="swimlane;whiteSpace=wrap" vertex="1" parent="1">
          <mxGeometry x="444.5" y="128" width="280" height="570" as="geometry" />
        </mxCell>
        <mxCell id="10" value="Obtener ubicación &#xa;actual del usuario" style="" vertex="1" parent="3">
          <mxGeometry x="75.5" y="70" width="110" height="50" as="geometry" />
        </mxCell>
        <mxCell id="0BsC6vm-CWQRjR1OpwmE-44" value="Solicitar datos del pronóstico del &#xa;tiempo a través de la API" style="" vertex="1" parent="3">
          <mxGeometry x="38.25" y="170" width="184.5" height="50" as="geometry" />
        </mxCell>
        <mxCell id="0BsC6vm-CWQRjR1OpwmE-43" value="" style="endArrow=open;strokeColor=#FF0000;endFill=1;rounded=0;exitX=0.5;exitY=1;exitDx=0;exitDy=0;entryX=0.5;entryY=0;entryDx=0;entryDy=0;" edge="1" parent="3" source="10" target="0BsC6vm-CWQRjR1OpwmE-44">
          <mxGeometry relative="1" as="geometry">
            <mxPoint x="-155" y="170" as="sourcePoint" />
            <mxPoint x="165.5" y="152" as="targetPoint" />
          </mxGeometry>
        </mxCell>
        <mxCell id="0BsC6vm-CWQRjR1OpwmE-47" value="Mostrar el pronostico del &#xa;tiempo al usuario" style="" vertex="1" parent="3">
          <mxGeometry x="35.5" y="275" width="190" height="50" as="geometry" />
        </mxCell>
        <mxCell id="0BsC6vm-CWQRjR1OpwmE-46" value="" style="endArrow=open;strokeColor=#FF0000;endFill=1;rounded=0;exitX=0.5;exitY=1;exitDx=0;exitDy=0;entryX=0.5;entryY=0;entryDx=0;entryDy=0;" edge="1" parent="3" source="0BsC6vm-CWQRjR1OpwmE-44" target="0BsC6vm-CWQRjR1OpwmE-47">
          <mxGeometry relative="1" as="geometry">
            <mxPoint x="141" y="130" as="sourcePoint" />
            <mxPoint x="135.5" y="272" as="targetPoint" />
          </mxGeometry>
        </mxCell>
        <mxCell id="11" value="" style="endArrow=open;strokeColor=#FF0000;endFill=1;rounded=0" edge="1" parent="1" source="8" target="10">
          <mxGeometry relative="1" as="geometry">
            <Array as="points">
              <mxPoint x="480" y="373" />
              <mxPoint x="480" y="223" />
            </Array>
          </mxGeometry>
        </mxCell>
        <mxCell id="0BsC6vm-CWQRjR1OpwmE-51" value="" style="endArrow=open;strokeColor=#FF0000;endFill=1;rounded=0;exitX=0;exitY=0.5;exitDx=0;exitDy=0;entryX=1;entryY=0.5;entryDx=0;entryDy=0;" edge="1" parent="1" source="0BsC6vm-CWQRjR1OpwmE-47" target="0BsC6vm-CWQRjR1OpwmE-50">
          <mxGeometry relative="1" as="geometry">
            <mxPoint x="585.5" y="258" as="sourcePoint" />
            <mxPoint x="585.5" y="308" as="targetPoint" />
          </mxGeometry>
        </mxCell>
      </root>
    </mxGraphModel>
  </diagram>
</mxfile>
